<?xml version="1.0" standalone="no"?>
<!DOCTYPE svg PUBLIC "-//W3C//DTD SVG 20010904//EN"
 "http://www.w3.org/TR/2001/REC-SVG-20010904/DTD/svg10.dtd">
<svg version="1.0" xmlns="http://www.w3.org/2000/svg"
 width="524.000000pt" height="524.000000pt" viewBox="0 0 524.000000 524.000000"
 preserveAspectRatio="xMidYMid meet">
<metadata>
Created by potrace 1.11, written by Peter Selinger 2001-2013
</metadata>
<g transform="translate(0.000000,524.000000) scale(0.100000,-0.100000)"
fill="#000000" stroke="none">
<path d="M0 2615 l0 -2375 2620 0 2620 0 0 2375 0 2375 -2620 0 -2620 0 0
-2375z m4550 2155 c0 -5 -5 -10 -11 -10 -5 0 -7 5 -4 10 3 6 8 10 11 10 2 0 4
-4 4 -10z m66 -68 c-12 -12 -18 8 -10 35 l8 28 4 -28 c2 -16 1 -31 -2 -35z
m-116 24 c0 -2 -8 -10 -17 -17 -16 -13 -17 -12 -4 4 13 16 21 21 21 13z m50
-26 c0 -5 -2 -10 -4 -10 -3 0 -8 5 -11 10 -3 6 -1 10 4 10 6 0 11 -4 11 -10z
m-90 -20 c0 -5 -5 -10 -11 -10 -5 0 -7 5 -4 10 3 6 8 10 11 10 2 0 4 -4 4 -10z
m130 1 c0 -11 -80 -81 -92 -81 -10 0 -10 3 -2 24 3 9 10 13 15 10 5 -3 9 0 9
5 0 6 6 11 14 11 8 0 18 9 21 20 6 20 35 29 35 11z m-173 -72 c-3 -10 3 -25
14 -35 17 -15 19 -15 25 0 3 9 12 16 20 16 22 0 16 -15 -12 -31 -23 -12 -27
-11 -39 4 -7 9 -17 17 -24 17 -6 0 -11 5 -11 10 0 6 -4 10 -10 10 -5 0 -10 -7
-10 -15 0 -8 -4 -15 -10 -15 -16 0 -12 12 17 42 28 29 48 28 40 -3z m63 21 c0
-5 -4 -10 -10 -10 -5 0 -10 5 -10 10 0 6 5 10 10 10 6 0 10 -4 10 -10z m-3747
-109 c-3 -3 -8 0 -10 7 -3 7 -13 17 -23 22 -16 9 -18 5 -17 -40 l2 -50 50 0
c44 1 48 2 33 14 -19 14 -23 26 -9 26 9 0 81 -63 81 -72 0 -10 -152 0 -163 11
-6 6 -11 46 -11 89 l-1 78 37 -40 c21 -22 35 -42 31 -45z m3632 -10 c-13 -12
-19 -13 -22 -3 -7 18 -40 15 -52 -5 -5 -10 -13 -15 -16 -11 -4 4 2 16 13 28
17 18 24 20 42 10 19 -10 22 -9 27 10 5 20 7 21 16 5 7 -12 4 -22 -8 -34z m40
-21 c-16 -16 -30 -28 -32 -27 -7 8 23 57 37 60 26 6 25 -2 -5 -33z m-167 -27
c-8 -10 -18 -26 -21 -35 -4 -10 -11 -18 -17 -18 -16 0 -12 12 17 42 29 31 45
39 21 11z m97 -43 c-16 -16 -31 -27 -34 -24 -6 6 45 54 56 54 4 0 -6 -13 -22
-30z m-3605 -10 c0 -5 -4 -10 -10 -10 -5 0 -10 5 -10 10 0 6 5 10 10 10 6 0
10 -4 10 -10z m138 -12 c16 -16 15 -28 -1 -28 -7 0 -18 9 -25 20 -10 16 -10
20 1 20 7 0 18 -5 25 -12z m3282 -33 c-19 -19 -38 -35 -44 -35 -5 0 5 16 24
35 19 19 38 35 44 35 5 0 -5 -16 -24 -35z m114 -19 c-21 -19 -41 -33 -43 -30
-5 5 61 64 73 64 4 0 -9 -15 -30 -34z m-3470 -1 c18 -24 20 -25 40 -8 13 11
16 12 9 3 -9 -12 -8 -21 7 -40 16 -21 20 -22 34 -11 9 8 20 10 24 6 4 -4 1
-10 -5 -12 -16 -6 -17 -35 -1 -51 7 -7 8 -12 3 -12 -8 0 -145 138 -145 146 0
12 18 1 34 -21z m1261 5 c3 -5 2 -10 -4 -10 -5 0 -13 5 -16 10 -3 6 -2 10 4
10 5 0 13 -4 16 -10z m-1120 -18 c6 -4 23 -22 40 -40 23 -25 27 -35 16 -41
-10 -7 -10 -13 -2 -29 8 -16 8 -24 -2 -34 -8 -7 -12 -19 -9 -26 6 -19 -8 -14
-29 11 -24 29 -24 40 1 32 17 -5 20 -2 21 22 2 47 -2 56 -34 85 -28 24 -29 41
-2 20z m1225 -43 c0 -16 -26 -10 -45 11 -18 20 -18 20 13 9 18 -6 32 -15 32
-20z m1931 16 c0 -4 -10 -13 -23 -19 -13 -6 -27 -21 -33 -34 -5 -12 -14 -22
-18 -22 -5 0 -17 -10 -27 -22 -10 -13 -22 -19 -27 -15 -4 5 21 35 57 67 60 55
72 62 71 45z m109 -25 c0 -5 -5 -10 -11 -10 -5 0 -7 5 -4 10 3 6 8 10 11 10 2
0 4 -4 4 -10z m-1971 -42 c17 -18 31 -39 31 -45 0 -7 8 -13 18 -13 11 0 27
-14 38 -35 10 -19 23 -35 29 -35 5 0 2 -7 -8 -15 -15 -10 -17 -18 -8 -32 10
-17 10 -17 11 0 0 21 13 22 30 2 11 -13 10 -14 -4 -9 -10 4 -18 0 -22 -11 -5
-12 -13 -4 -35 35 -15 28 -25 58 -22 66 4 10 1 14 -8 13 -12 -3 -119 94 -119
107 0 2 9 4 19 4 11 0 34 -15 50 -32z m-1145 -47 c16 -17 16 -21 4 -21 -18 0
-90 65 -81 74 7 6 50 -23 77 -53z m3048 27 c-7 -7 -12 -8 -12 -2 0 6 3 14 7
17 3 4 9 5 12 2 2 -3 -1 -11 -7 -17z m-27 -28 c-3 -5 -12 -7 -20 -3 -21 7 -19
13 6 13 11 0 18 -4 14 -10z m-171 -35 c-4 -17 -2 -25 7 -25 9 0 10 -3 3 -10
-12 -12 -44 -3 -44 13 0 10 29 47 37 47 2 0 1 -11 -3 -25z m115 -21 c-26 -27
-35 -32 -37 -19 -6 25 7 48 23 41 8 -3 17 -1 20 4 4 6 11 10 18 10 6 0 -5 -16
-24 -36z m-3253 5 c5 1 9 -6 8 -14 0 -8 -2 -246 -5 -527 -3 -503 -4 -507 -9
-203 l-5 310 -3 -319 c-1 -176 -4 -317 -7 -315 -7 7 -16 1069 -9 1081 4 7 9 6
14 -2 4 -6 11 -11 16 -11z m3189 11 c3 -5 -1 -10 -9 -10 -9 0 -16 5 -16 10 0
6 4 10 9 10 6 0 13 -4 16 -10z m-2867 -19 c-9 -15 -15 -17 -26 -9 -10 9 -11
13 0 19 7 5 19 9 26 9 10 0 10 -4 0 -19z m-103 -2 c12 -19 -5 -23 -22 -6 -16
16 -16 17 -1 17 9 0 20 -5 23 -11z m65 -20 c7 -11 9 -27 6 -34 -3 -8 -1 -17 4
-20 6 -4 10 -11 10 -16 0 -11 -49 22 -50 34 0 4 8 8 18 8 15 1 15 2 1 6 -21 5
-33 43 -13 43 7 0 18 -9 24 -21z m87 -39 c-12 -32 -20 -31 -22 0 -1 12 5 20
14 20 14 1 13 2 -1 11 -10 5 -18 15 -18 21 0 6 9 3 19 -6 16 -14 17 -22 8 -46z
m2696 16 c4 -10 0 -14 -14 -13 -20 1 -24 9 -12 20 10 11 20 8 26 -7z m107 -26
c-19 -16 -39 -29 -45 -29 -5 0 6 13 25 29 19 17 39 30 44 30 6 0 -5 -13 -24
-30z m-2736 -31 c-3 -5 3 -9 12 -9 16 0 16 -1 -2 -14 -15 -12 -17 -17 -6 -27
19 -20 14 -30 -8 -17 -15 10 -19 20 -15 37 4 17 0 27 -14 37 -12 9 -18 21 -14
30 5 13 9 12 29 -7 13 -12 21 -26 18 -30z m2565 4 c-8 -10 -26 -31 -41 -48
-20 -22 -24 -32 -16 -42 7 -9 7 -13 0 -13 -6 0 -12 5 -14 11 -2 5 -23 -8 -46
-30 -43 -41 -69 -56 -39 -23 10 10 14 21 11 25 -3 3 7 14 22 24 15 10 49 39
75 65 47 47 75 65 48 31z m-1407 -41 c-4 -13 -7 -12 -12 4 -4 10 -5 23 -2 28
7 13 21 -16 14 -32z m-1252 12 c0 -8 -4 -12 -10 -9 -5 3 -10 10 -10 16 0 5 5
9 10 9 6 0 10 -7 10 -16z m2696 -70 c-44 -40 -82 -71 -85 -68 -3 3 3 12 14 20
16 12 17 17 7 23 -11 7 -11 9 2 14 9 4 16 14 16 24 1 17 1 17 14 1 16 -21 26
-23 26 -5 1 24 67 82 80 70 3 -3 -31 -38 -74 -79z m-2476 -6 c0 -12 -28 -10
-35 3 -4 6 -13 8 -21 5 -9 -3 -14 1 -14 13 0 11 -3 27 -7 37 -4 12 7 7 35 -16
23 -18 42 -37 42 -42z m-180 46 c0 -8 -4 -12 -10 -9 -5 3 -10 10 -10 16 0 5 5
9 10 9 6 0 10 -7 10 -16z m2650 6 c0 -5 -2 -10 -4 -10 -3 0 -8 5 -11 10 -3 6
-1 10 4 10 6 0 11 -4 11 -10z m-2620 -40 c0 -5 -2 -10 -4 -10 -3 0 -8 5 -11
10 -3 6 -1 10 4 10 6 0 11 -4 11 -10z m49 -45 c13 -14 22 -28 19 -30 -4 -4
-58 42 -58 50 0 12 17 3 39 -20z m1162 -2 c-8 -30 -31 -44 -31 -18 0 9 4 14 9
11 5 -3 11 3 14 14 3 11 7 20 10 20 3 0 2 -12 -2 -27z m-992 -22 c20 -16 31
-33 27 -39 -11 -18 -20 -14 -31 10 -6 12 -21 25 -34 28 -14 3 -26 11 -29 18
-7 22 32 12 67 -17z m2291 5 c0 -8 5 -16 12 -18 6 -2 8 -10 4 -17 -6 -9 -12
-5 -22 14 -17 32 -17 35 -4 35 6 0 10 -6 10 -14z m-120 -31 c-7 -9 -15 -13
-18 -10 -3 2 1 11 8 20 7 9 15 13 18 10 3 -2 -1 -11 -8 -20z m-2276 -11 c4
-12 2 -12 -14 -4 -11 6 -20 15 -20 20 0 14 28 1 34 -16z m1083 -31 c-3 -10 -5
-2 -5 17 0 19 2 27 5 18 2 -10 2 -26 0 -35z m33 37 c0 -5 -4 -10 -10 -10 -5 0
-10 5 -10 10 0 6 5 10 10 10 6 0 10 -4 10 -10z m1259 -27 c0 -12 -59 -56 -66
-50 -3 3 8 17 23 31 29 26 44 32 43 19z m-2311 -33 c17 -16 32 -33 32 -37 0
-5 17 -19 38 -33 20 -13 51 -38 68 -55 85 -82 151 -142 168 -152 11 -6 16 -15
11 -22 -5 -8 -19 0 -44 26 -21 21 -80 76 -132 123 -147 133 -195 180 -184 179
6 0 25 -13 43 -29z m137 0 c16 -16 23 -30 17 -30 -7 0 -17 9 -24 20 -7 11 -18
20 -25 20 -7 0 -13 5 -13 10 0 18 16 11 45 -20z m2045 23 c0 -5 -15 -15 -33
-23 -22 -10 -32 -22 -31 -36 0 -12 -4 -20 -10 -18 -13 5 -66 -39 -66 -55 0 -6
-7 -11 -15 -11 -27 0 -16 17 56 84 64 59 99 80 99 59z m-1146 -249 c-4 -61
-11 -118 -16 -125 -7 -10 -8 -4 -4 20 3 18 7 102 7 185 1 127 3 142 10 91 5
-33 6 -110 3 -171z m1196 206 c0 -5 -5 -10 -11 -10 -5 0 -7 -4 -4 -10 3 -5 -1
-10 -9 -10 -19 0 -21 26 -3 33 20 9 27 8 27 -3z m-1990 -82 c0 -5 -16 3 -35
18 -19 14 -32 31 -29 36 6 10 64 -39 64 -54z m1951 19 c-10 -9 -11 -8 -5 6 3
10 9 15 12 12 3 -3 0 -11 -7 -18z m-21 -23 c0 -8 -6 -14 -14 -14 -9 0 -12 7
-9 20 6 22 23 18 23 -6z m-40 -21 c-1 -5 -12 -21 -25 -38 -19 -23 -25 -26 -25
-12 0 10 7 20 15 23 8 4 15 12 15 20 0 8 5 14 10 14 6 0 10 -3 10 -7z m-1828
-20 c10 -9 18 -20 18 -25 0 -16 -18 -8 -34 17 -19 29 -11 33 16 8z m1737 5
c14 5 14 4 2 -11 -16 -21 -37 -22 -44 -3 -7 18 4 29 16 17 5 -5 17 -7 26 -3z
m-69 -28 c-19 -12 -30 -12 -30 -1 0 10 31 20 40 14 2 -2 -2 -8 -10 -13z
m-1538 -101 c78 -77 75 -82 -8 -12 -28 24 -57 43 -65 44 -11 0 -11 2 -1 6 10
4 10 8 1 19 -30 36 7 7 73 -57z m1465 34 c-12 -13 -15 -13 -14 -2 2 8 7 21 12
29 7 11 10 11 13 1 2 -7 -3 -20 -11 -28z m90 -40 c-17 -18 -22 -8 -11 22 5 12
10 13 17 6 8 -8 6 -16 -6 -28z m-146 -3 c-17 -17 -31 -35 -31 -40 0 -6 -4 -10
-10 -10 -5 0 -10 2 -10 5 0 10 63 75 73 75 5 0 -4 -14 -22 -30z m79 -60 c-37
-47 -50 -56 -50 -37 0 12 65 75 78 77 2 0 -11 -18 -28 -40z m-1535 -15 c52
-50 38 -54 -16 -6 -24 22 -39 40 -33 41 6 0 28 -16 49 -35z m1379 1 c-7 -18
-54 -50 -54 -37 0 7 47 49 57 51 1 0 0 -6 -3 -14z m-1195 -41 c23 -25 45 -45
49 -45 4 0 19 -12 32 -28 14 -15 42 -41 64 -59 21 -17 37 -36 35 -41 -2 -6
-58 41 -124 103 -66 63 -115 115 -109 115 6 0 30 -20 53 -45z m451 6 c0 -6 -4
-13 -10 -16 -5 -3 -10 1 -10 9 0 9 5 16 10 16 6 0 10 -4 10 -9z m808 -33 c-18
-27 -38 -35 -38 -14 0 9 7 16 16 16 8 0 12 5 9 10 -3 6 1 10 11 10 15 0 15 -2
2 -22z m-1338 -25 c13 -12 21 -26 17 -30 -4 -4 -24 10 -45 30 -40 41 -17 41
28 0z m560 28 c0 -5 -6 -16 -13 -23 -7 -7 -16 -22 -20 -32 -13 -33 -17 -11 -5
27 10 32 38 53 38 28z m638 -8 c-11 -3 -18 -14 -18 -28 0 -13 -6 -25 -12 -28
-22 -8 -3 -17 40 -20 23 -1 42 -5 42 -8 0 -16 -40 -39 -61 -36 -13 2 -36 1
-51 -4 -16 -4 -28 -4 -28 2 0 15 -36 10 -50 -6 -19 -23 -29 -18 -17 10 13 26
52 49 68 40 5 -4 9 -2 9 3 0 18 63 82 79 81 13 -1 12 -2 -1 -6z m88 -25 c-1
-24 -6 -34 -20 -36 -15 -3 -18 0 -14 16 4 13 0 23 -9 26 -20 8 -6 26 21 26 19
0 23 -5 22 -32z m-56 -29 c0 -5 -6 -6 -13 -3 -8 3 -14 11 -14 19 0 11 4 12 14
4 7 -6 13 -15 13 -20z m-1141 -50 c26 -26 39 -49 28 -49 -2 0 -21 18 -42 40
-21 22 -34 40 -28 40 6 0 25 -14 42 -31z m381 -18 c0 -6 -4 -13 -10 -16 -5 -3
-10 1 -10 9 0 9 5 16 10 16 6 0 10 -4 10 -9z m560 -37 c0 -9 -32 -33 -44 -34
-5 0 -1 9 9 20 18 20 35 26 35 14z m-852 -23 c33 -29 27 -46 -7 -19 -29 22
-39 38 -23 38 4 -1 17 -9 30 -19z m117 9 c3 -5 -1 -10 -9 -10 -8 0 -18 5 -21
10 -3 6 1 10 9 10 8 0 18 -4 21 -10z m824 -33 c-76 -70 -79 -72 -79 -53 0 9 5
14 10 11 6 -3 10 -2 10 2 0 12 54 69 71 75 27 10 23 -3 -12 -35z m-784 3 c3
-5 -1 -10 -10 -10 -9 0 -13 5 -10 10 3 6 8 10 10 10 2 0 7 -4 10 -10z m2360
-18 c-3 -3 -11 0 -18 7 -9 10 -8 11 6 5 10 -3 15 -9 12 -12z m-2266 -18 c27
-34 26 -47 -1 -87 -35 -49 -50 -58 -95 -55 -35 3 -43 0 -43 -14 0 -9 -4 -20
-10 -23 -5 -3 -10 3 -10 14 0 11 5 23 10 26 20 13 10 68 -17 98 -24 25 -25 28
-6 18 12 -6 25 -16 28 -21 9 -15 44 7 57 35 6 13 20 26 32 28 11 2 24 5 28 6
4 0 16 -11 27 -25z m477 -39 c-9 -14 -21 -25 -26 -25 -5 0 -18 -10 -30 -22
-11 -12 -20 -18 -20 -13 0 12 82 96 88 90 3 -2 -3 -16 -12 -30z m1896 5 c15
-16 35 -30 42 -30 21 0 31 -21 16 -30 -13 -8 -110 64 -110 82 0 17 24 7 52
-22z m-1801 -35 c0 -5 -8 -16 -19 -23 -18 -12 -19 -10 -14 13 4 25 33 33 33
10z m-91 -15 c0 -5 -4 -10 -10 -10 -5 0 -10 5 -10 10 0 6 5 10 10 10 6 0 10
-4 10 -10z m-386 -50 c21 -22 34 -40 28 -40 -6 0 -19 11 -29 24 -10 13 -29 26
-41 30 -12 4 -22 12 -22 17 0 20 27 7 64 -31z m386 21 c0 -5 -6 -11 -12 -14
-10 -3 -10 -8 1 -21 8 -9 12 -17 10 -19 -2 -1 -16 -13 -31 -26 -28 -24 -28
-24 -28 -3 0 15 6 22 20 22 11 0 20 5 20 10 0 6 -7 10 -15 10 -8 0 -15 7 -15
15 0 8 7 15 15 15 8 0 15 5 15 10 0 6 5 10 10 10 6 0 10 -4 10 -9z m-105 -20
c-3 -6 -11 -11 -17 -11 -6 0 -6 6 2 15 14 17 26 13 15 -4z m145 9 c0 -5 -5
-10 -11 -10 -5 0 -7 5 -4 10 3 6 8 10 11 10 2 0 4 -4 4 -10z m1994 -24 c35
-46 33 -56 -4 -21 -26 25 -33 27 -41 15 -9 -12 -10 -12 -5 3 3 10 6 23 6 28 0
19 18 8 44 -25z m-2524 -26 c0 -5 -2 -10 -4 -10 -3 0 -8 5 -11 10 -3 6 -1 10
4 10 6 0 11 -4 11 -10z m360 6 c0 -11 -19 -15 -25 -6 -3 5 1 10 9 10 9 0 16
-2 16 -4z m28 -26 c-16 -24 -31 -15 -18 11 6 11 15 17 20 14 6 -4 5 -14 -2
-25z m482 21 c0 -18 -15 -19 -40 -5 l-25 13 33 1 c17 0 32 -4 32 -9z m-831
-28 c10 -10 45 -42 77 -72 92 -83 123 -115 119 -120 -3 -2 -26 16 -53 40 -26
24 -76 69 -110 99 -55 49 -73 70 -57 70 3 0 13 -8 24 -17z m158 -29 c-8 -8
-37 21 -37 38 0 7 9 4 22 -9 12 -13 19 -25 15 -29z m123 36 c0 -5 -4 -10 -9
-10 -5 0 -11 -9 -14 -21 -3 -12 -10 -18 -17 -14 -6 4 -21 -1 -33 -11 -12 -10
-4 1 18 24 39 42 55 51 55 32z m2200 0 c0 -5 -4 -10 -10 -10 -5 0 -10 5 -10
10 0 6 5 10 10 10 6 0 10 -4 10 -10z m61 -27 c13 -16 12 -17 -3 -4 -17 13 -22
21 -14 21 2 0 10 -8 17 -17z m-2815 -8 c-11 -8 -24 -15 -30 -15 -5 0 -1 7 10
15 10 8 24 14 29 14 6 0 1 -6 -9 -14z m2804 -63 c-1 -14 -40 43 -40 58 0 8 9
0 20 -18 11 -18 20 -36 20 -40z m48 2 c-10 -10 -28 6 -28 24 0 15 1 15 17 -1
9 -9 14 -19 11 -23z m-2276 -16 c-7 -7 -12 -8 -12 -2 0 6 3 14 7 17 3 4 9 5
12 2 2 -3 -1 -11 -7 -17z m-28 -21 c-5 -14 -44 -41 -44 -30 0 10 32 43 41 43
5 0 6 -6 3 -13z m2295 -36 c8 -15 9 -27 3 -33 -6 -6 -13 1 -20 19 -5 15 -14
37 -18 48 -7 18 -6 18 7 5 9 -9 21 -26 28 -39z m-4099 -21 c0 -13 -5 -17 -15
-14 -13 5 -15 -44 -14 -412 1 -231 5 -446 9 -479 l8 -60 -1 82 c-1 45 2 86 7
90 4 4 6 -42 4 -104 -2 -61 -7 -115 -11 -119 -12 -12 -21 5 -23 44 -2 28 -5
917 -4 977 0 6 9 11 20 12 14 1 20 -4 20 -17z m4119 -70 c0 -10 -3 -8 -9 5
-12 27 -12 43 0 25 5 -8 9 -22 9 -30z m21 -102 c0 -39 -2 -69 -4 -67 -9 10
-14 149 -5 144 5 -4 9 -38 9 -77z m50 23 c0 -6 -4 -13 -10 -16 -5 -3 -10 1
-10 9 0 9 5 16 10 16 6 0 10 -4 10 -9z m0 -48 c0 -5 -5 -15 -10 -23 -8 -12
-10 -11 -10 8 0 12 5 22 10 22 6 0 10 -3 10 -7z m10 -123 c0 -38 -4 -70 -9
-70 -14 0 -21 28 -21 86 0 41 4 54 15 54 12 0 15 -14 15 -70z m-2921 -47 c-23
-29 -53 -52 -68 -53 -8 0 3 16 25 35 42 36 66 46 43 18z m135 2 c3 -8 -4 -21
-16 -29 -24 -17 -49 -9 -26 8 8 6 13 17 11 24 -6 17 24 15 31 -3z m756 5 c0
-5 -2 -10 -4 -10 -3 0 -8 5 -11 10 -3 6 -1 10 4 10 6 0 11 -4 11 -10z m-74
-12 c4 -6 2 -14 -4 -16 -7 -2 -12 -11 -12 -20 0 -15 -1 -15 -17 0 -13 14 -14
20 -3 32 15 19 26 20 36 4z m175 -43 c12 4 33 -4 58 -22 54 -38 81 -106 81
-200 0 -64 -2 -72 -21 -78 -12 -4 -25 -3 -31 3 -5 5 -18 7 -29 5 -17 -5 -18
-13 -12 -114 4 -79 3 -109 -5 -109 -9 0 -12 36 -12 121 0 104 2 120 15 115 8
-3 15 -1 15 3 0 5 -7 11 -15 14 -8 4 -26 30 -41 58 -14 29 -36 61 -48 70 -11
10 -16 18 -9 19 6 0 15 -6 20 -12 10 -17 23 58 16 94 -5 23 -9 27 -29 22 -19
-5 -23 -3 -18 10 4 11 1 16 -10 16 -16 0 -21 12 -10 23 4 4 20 -5 37 -19 19
-16 36 -22 48 -19z m1924 -51 c-3 -37 -10 -74 -15 -83 -5 -9 -10 -11 -10 -4 0
6 -3 19 -7 29 -3 10 -2 15 3 12 5 -4 7 13 5 38 -2 27 1 44 8 44 6 0 11 7 11
15 0 8 2 15 5 15 3 0 3 -30 0 -66z m-2045 -11 c0 -4 -11 4 -25 17 -14 13 -25
28 -25 33 0 6 11 -2 25 -17 14 -15 25 -30 25 -33z m-819 29 c-13 -25 -40 -46
-48 -38 -3 3 7 17 23 31 35 30 38 31 25 7z m2811 -33 c-7 -11 -10 -29 -7 -40
4 -11 2 -19 -6 -19 -8 0 -10 12 -5 38 3 20 6 44 6 52 0 11 3 11 12 2 10 -10
10 -17 0 -33z m-2982 2 c0 -12 -20 -25 -27 -18 -7 7 6 27 18 27 5 0 9 -4 9 -9z
m1020 -11 c0 -5 -2 -10 -4 -10 -3 0 -8 5 -11 10 -3 6 -1 10 4 10 6 0 11 -4 11
-10z m-1060 -14 c0 -2 -7 -7 -16 -10 -8 -3 -12 -2 -9 4 6 10 25 14 25 6z m-42
-50 c-8 -6 -13 -17 -11 -23 5 -15 -6 -16 -27 -3 -10 6 -11 10 -2 10 6 0 12 6
12 14 0 16 20 26 34 18 5 -3 2 -10 -6 -16z m152 17 c0 -13 -81 -76 -87 -69 -6
6 35 48 64 65 22 13 23 13 23 4z m2880 -80 c-11 -17 -11 -17 -6 0 3 10 7 26 7
35 1 15 2 15 6 0 2 -10 -1 -25 -7 -35z m-1556 -71 c3 -7 -14 1 -39 19 -25 18
-45 39 -45 47 0 15 73 -42 84 -66z m-1424 53 c-7 -9 -15 -13 -17 -11 -7 7 7
26 19 26 6 0 6 -6 -2 -15z m-150 -3 c0 -8 -35 -33 -63 -44 -13 -6 -10 1 10 22
26 28 53 39 53 22z m85 -52 c-16 -16 -33 -30 -39 -30 -12 0 46 59 58 60 6 0
-3 -13 -19 -30z m3026 7 c-10 -9 -11 -8 -5 6 3 10 9 15 12 12 3 -3 0 -11 -7
-18z m59 14 c0 -5 -7 -14 -15 -21 -8 -7 -15 -20 -16 -29 0 -9 -3 -11 -5 -5 -6
15 13 64 26 64 5 0 10 -4 10 -9z m-3264 -47 c-3 -9 -6 -18 -6 -20 0 -2 -7 -4
-15 -4 -13 0 -13 3 -3 20 15 24 33 27 24 4z m1728 -13 c31 -30 178 -158 251
-220 22 -18 33 -30 25 -27 -8 3 -23 9 -32 12 -10 4 -18 10 -18 14 0 5 -16 18
-35 30 -19 12 -33 25 -30 30 3 5 -3 11 -12 14 -10 3 -47 33 -83 66 -35 33 -69
60 -75 60 -7 0 -17 11 -23 25 -15 33 -6 32 32 -4z m-169 9 c3 -5 1 -10 -4 -10
-6 0 -11 5 -11 10 0 6 2 10 4 10 3 0 8 -4 11 -10z m-1435 -20 c0 -5 -5 -10
-11 -10 -5 0 -7 5 -4 10 3 6 8 10 11 10 2 0 4 -4 4 -10z m1495 -26 c22 -23 32
-44 22 -44 -2 0 -18 16 -37 35 -19 19 -28 35 -21 35 6 0 23 -12 36 -26z
m-1675 1 c-7 -9 -15 -13 -17 -11 -7 7 7 26 19 26 6 0 6 -6 -2 -15z m3280 11
c0 -3 -5 -17 -10 -32 -8 -19 -14 -24 -21 -17 -7 7 -7 17 3 32 11 19 28 28 28
17z m-3149 -29 c-10 -9 -11 -8 -5 6 3 10 9 15 12 12 3 -3 0 -11 -7 -18z m3083
-11 c-3 -14 -10 -26 -15 -26 -5 0 -6 7 -4 15 3 8 7 22 10 31 9 27 17 9 9 -20z
m-3251 -6 c-6 -21 -25 -28 -20 -7 2 10 16 26 24 27 0 0 -1 -9 -4 -20z m1807
-57 c0 -18 -3 -17 -31 13 l-24 26 28 -13 c15 -7 27 -18 27 -26z m-1909 -34
c-35 -33 -66 -58 -68 -55 -5 5 50 61 92 94 52 41 40 22 -24 -39z m194 42 c-3
-6 -11 -11 -17 -11 -6 0 -6 6 2 15 14 17 26 13 15 -4z m3175 4 c-7 -8 -17 -15
-23 -15 -6 0 -2 7 9 15 25 19 30 19 14 0z m-59 -22 c-12 -20 -14 -14 -5 12 4
9 9 14 11 11 3 -2 0 -13 -6 -23z m5 -51 c-11 -11 -16 -12 -16 -4 0 18 24 43
29 30 2 -5 -4 -17 -13 -26z m-3219 -20 c-21 -21 -27 -23 -27 -10 0 9 9 20 20
23 11 3 20 11 20 17 0 6 3 8 7 4 4 -3 -5 -19 -20 -34z m1903 6 c0 -12 -14 -10
-28 4 -19 19 -14 29 8 16 11 -7 20 -16 20 -20z m1276 5 c-1 -26 -23 -63 -37
-63 -9 0 -3 44 10 69 16 29 29 26 27 -6z m-3361 -42 c-3 -6 -11 -11 -17 -11
-6 0 -6 6 2 15 14 17 26 13 15 -4z m100 -41 c-35 -36 -53 -40 -28 -6 15 21 24
27 52 35 3 0 -8 -12 -24 -29z m-698 -2 c-3 -8 -6 -5 -6 6 -1 11 2 17 5 13 3
-3 4 -12 1 -19z m2783 8 c0 -8 5 -16 12 -18 6 -2 9 -10 6 -18 -3 -10 -10 -7
-26 10 -26 28 -28 40 -7 40 8 0 15 -6 15 -14z m163 -21 c31 -29 35 -40 10 -26
-39 22 -68 51 -53 51 8 0 28 -11 43 -25z m-2434 -26 c-38 -29 -46 -22 -14 11
18 19 31 26 34 19 2 -7 -7 -20 -20 -30z m3341 16 c0 -8 -7 -15 -15 -15 -16 0
-20 12 -8 23 11 12 23 8 23 -8z m-3867 -15 c3 -11 1 -20 -4 -20 -5 0 -9 9 -9
20 0 11 2 20 4 20 2 0 6 -9 9 -20z m3832 -10 c3 -5 2 -10 -4 -10 -5 0 -13 5
-16 10 -3 6 -2 10 4 10 5 0 13 -4 16 -10z m-3205 -25 c-7 -8 -18 -15 -24 -15
-6 0 -2 7 8 15 25 19 32 19 16 0z m2275 -20 c22 -19 35 -34 29 -35 -6 0 -28
16 -50 35 -21 19 -34 34 -29 34 6 1 28 -15 50 -34z m151 1 c21 -19 36 -37 33
-41 -4 -3 -26 12 -50 35 -52 49 -37 54 17 6z m-2607 -15 c-12 -17 -26 -28 -31
-25 -5 4 3 19 18 35 35 36 43 30 13 -10z m3331 29 c0 -10 -90 -53 -98 -46 -2
3 12 11 31 19 19 8 38 20 41 26 9 14 26 15 26 1z m-635 -90 c22 -22 25 -30 13
-30 -9 0 -26 14 -38 30 -12 17 -17 30 -13 30 5 0 22 -13 38 -30z m-2624 0
c-13 -11 -28 -20 -33 -20 -6 0 0 9 13 20 13 10 29 19 34 19 6 0 -1 -9 -14 -19z
m2462 7 c26 -13 107 -92 107 -103 0 -3 -31 21 -70 52 -38 32 -70 59 -70 61 0
5 7 3 33 -10z m-2621 -25 c-5 -1 -20 -12 -33 -23 -12 -10 -27 -19 -33 -19 -6
0 2 10 18 22 15 12 33 27 40 34 8 8 12 9 15 1 2 -6 -1 -13 -7 -15z m88 -38 c0
-8 -5 -12 -10 -9 -6 4 -8 11 -5 16 9 14 15 11 15 -7z m2796 -31 c51 -47 168
-145 201 -170 9 -7 13 -16 9 -20 -4 -5 -13 -1 -19 7 -7 8 -38 35 -70 59 -32
24 -61 49 -65 55 -9 14 -78 66 -88 66 -8 0 -33 32 -34 43 0 15 14 6 66 -40z
m-2966 -3 c0 -5 -4 -10 -10 -10 -5 0 -10 5 -10 10 0 6 5 10 10 10 6 0 10 -4
10 -10z m100 -40 c-29 -27 -56 -47 -59 -44 -3 3 3 12 13 20 11 8 16 14 11 14
-11 0 67 58 80 59 5 1 -15 -21 -45 -49z m1988 43 c-10 -2 -28 -2 -40 0 -13 2
-5 4 17 4 22 1 32 -1 23 -4z m771 -37 c19 -23 -4 -28 -24 -6 -15 17 -16 20 -3
20 9 0 21 -6 27 -14z m-2869 -6 c0 -5 -2 -10 -4 -10 -3 0 -8 5 -11 10 -3 6 -1
10 4 10 6 0 11 -4 11 -10z m-115 -66 c-23 -23 -30 -10 -8 15 10 12 19 17 21
11 2 -5 -4 -17 -13 -26z m3074 -2 c13 -11 22 -24 20 -31 -2 -6 -20 3 -41 22
-59 53 -43 59 21 9z m-2941 -17 c-12 -14 -28 -25 -37 -25 -11 0 -8 7 9 25 13
14 29 25 37 25 8 0 5 -9 -9 -25z m-188 -25 c12 -8 9 -10 -13 -10 -16 0 -26 4
-22 10 8 12 16 12 35 0z m98 -49 c-35 -32 -48 -38 -48 -21 0 6 10 14 23 19 13
5 29 16 36 25 8 9 16 14 18 12 3 -3 -10 -18 -29 -35z m3132 -1 c18 -17 30 -34
26 -37 -4 -4 -23 10 -44 30 -44 44 -28 50 18 7z m166 -11 c19 -22 19 -22 -3
-10 -13 6 -23 16 -23 21 0 15 5 12 26 -11z m-3488 -3 c-10 -7 -18 -18 -18 -24
0 -5 -9 -8 -20 -5 -19 5 -19 6 3 24 12 10 29 18 37 18 12 0 12 -2 -2 -13z
m-93 -74 c-5 -14 -7 -14 -15 -2 -5 9 -4 20 3 28 14 17 22 0 12 -26z m3524 -8
c44 -41 18 -34 -29 7 -26 24 -35 35 -21 28 14 -6 36 -22 50 -35z m146 16 c10
-12 34 -30 52 -41 18 -11 31 -25 28 -29 -3 -5 -16 2 -30 16 -13 13 -30 24 -37
24 -14 1 -54 50 -40 50 5 0 17 -9 27 -20z m-3495 -3 c0 -2 -9 -12 -19 -21 -19
-17 -19 -17 -16 1 2 10 4 19 4 21 1 3 31 2 31 -1z m-193 -89 c-3 -7 -5 -2 -5
12 0 14 2 19 5 13 2 -7 2 -19 0 -25z m98 12 c-3 -5 -11 -10 -16 -10 -6 0 -7 5
-4 10 3 6 11 10 16 10 6 0 7 -4 4 -10z m3715 -15 c22 -26 6 -35 -19 -10 -17
18 -19 25 -8 25 8 0 20 -7 27 -15z m-139 -29 c17 -19 44 -40 60 -46 16 -7 29
-18 29 -26 0 -8 -23 3 -55 28 -30 22 -55 44 -55 48 0 4 -10 12 -22 18 -18 8
-19 11 -6 11 10 1 31 -14 49 -33z m-3635 -3 c-10 -10 -19 5 -10 18 6 11 8 11
12 0 2 -7 1 -15 -2 -18z m-34 -8 c0 -5 -5 -11 -11 -13 -6 -2 -11 4 -11 13 0 9
5 15 11 13 6 -2 11 -8 11 -13z m3872 0 c11 -8 15 -15 10 -15 -6 0 -19 7 -30
15 -10 8 -14 14 -9 14 6 0 19 -6 29 -14z m64 -113 c2 -54 0 -72 -10 -72 -9 0
-13 20 -13 75 0 97 19 94 23 -3z m-148 27 c0 -6 -4 -7 -10 -4 -5 3 -10 11 -10
16 0 6 5 7 10 4 6 -3 10 -11 10 -16z m71 -46 c21 -16 39 -32 39 -36 0 -5 -20
6 -45 24 -25 18 -45 34 -45 36 0 8 15 1 51 -24z m-1428 -408 c3 -77 2 -102 -3
-70 -8 50 -13 202 -6 194 2 -2 6 -58 9 -124z m47 -92 c-11 -17 -11 -17 -6 0 3
10 7 33 8 50 l1 32 4 -32 c2 -18 -1 -41 -7 -50z m13 -60 c-7 -2 -21 -2 -30 0
-10 3 -4 5 12 5 17 0 24 -2 18 -5z"/>
<path d="M2292 4128 c2 -6 10 -14 16 -16 7 -2 10 2 6 12 -7 18 -28 22 -22 4z"/>
<path d="M784 3900 c0 -102 2 -143 3 -92 2 50 2 134 0 185 -1 50 -3 9 -3 -93z"/>
</g>
</svg>
